<?xml version="1.0" encoding="UTF-8" standalone="no" ?>
<!DOCTYPE svg PUBLIC "-//W3C//DTD SVG 1.1//EN" "http://www.w3.org/Graphics/SVG/1.1/DTD/svg11.dtd">
<svg xmlns="http://www.w3.org/2000/svg" xmlns:xlink="http://www.w3.org/1999/xlink" version="1.1" width="420" height="300" viewBox="0 0 420 300" xml:space="preserve">
<desc>Created with Fabric.js 5.2.4</desc>
<defs>
</defs>
<g transform="matrix(1 0 0 1 210 150)" id="90097d20-49f6-4032-8828-8955d172de92"  >
<rect style="stroke: none; stroke-width: 1; stroke-dasharray: none; stroke-linecap: butt; stroke-dashoffset: 0; stroke-linejoin: miter; stroke-miterlimit: 4; fill: rgb(63,63,63); fill-rule: nonzero; opacity: 1;" vector-effect="non-scaling-stroke"  x="-210" y="-150" rx="0" ry="0" width="420" height="300" />
</g>
<g transform="matrix(0.35 0 0 0.35 210 150)" style="" id="d223cacb-f6cd-46d0-b677-8827fe2f61e8"  >
		<text xml:space="preserve" font-family="Roboto" font-size="66" font-style="normal" font-weight="400" style="stroke: none; stroke-width: 1; stroke-dasharray: none; stroke-linecap: butt; stroke-dashoffset: 0; stroke-linejoin: miter; stroke-miterlimit: 4; fill: rgb(255,255,255); fill-rule: nonzero; opacity: 1; white-space: pre;" ><tspan x="-311.65" y="-165.72" >I</tspan><tspan x="-291.39" y="-165.72" >m</tspan><tspan x="-237.2" y="-165.72" >a</tspan><tspan x="-203.74" y="-165.72" >g</tspan><tspan x="-170.02" y="-165.72" >e</tspan><tspan x="-135.43" y="-165.72" style="white-space: pre; "> </tspan><tspan x="-122.69" y="-165.72" >d</tspan><tspan x="-85.8" y="-165.72" >i</tspan><tspan x="-68.9" y="-165.72" >d</tspan><tspan x="-32.01" y="-165.72" style="white-space: pre; "> </tspan><tspan x="-19.27" y="-165.72" >n</tspan><tspan x="17.42" y="-165.72" >o</tspan><tspan x="54.12" y="-165.72" >t</tspan><tspan x="78.74" y="-165.72" style="white-space: pre; "> </tspan><tspan x="91.48" y="-165.72" >l</tspan><tspan x="108.37" y="-165.72" >o</tspan><tspan x="145.07" y="-165.72" >a</tspan><tspan x="178.53" y="-165.72" >d</tspan><tspan x="215.42" y="-165.72" style="white-space: pre; "> </tspan><tspan x="228.16" y="-165.72" >=</tspan><tspan x="266.44" y="-165.72" >C</tspan><tspan x="-403.62" y="-91.14" >C</tspan><tspan x="-358.41" y="-91.14" >h</tspan><tspan x="-321.72" y="-91.14" >e</tspan><tspan x="-287.13" y="-91.14" >c</tspan><tspan x="-256.31" y="-91.14" >k</tspan><tspan x="-221.73" y="-91.14" style="white-space: pre; "> </tspan><tspan x="-208.99" y="-91.14" >y</tspan><tspan x="-176.06" y="-91.14" >o</tspan><tspan x="-139.36" y="-91.14" >u</tspan><tspan x="-102.66" y="-91.14" >r</tspan><tspan x="-76.07" y="-91.14" style="white-space: pre; "> </tspan><tspan x="-63.33" y="-91.14" >p</tspan><tspan x="-26.9" y="-91.14" >r</tspan><tspan x="-0.3" y="-91.14" >i</tspan><tspan x="16.6" y="-91.14" >v</tspan><tspan x="50.39" y="-91.14" >a</tspan><tspan x="83.85" y="-91.14" >c</tspan><tspan x="114.68" y="-91.14" >y</tspan><tspan x="148.47" y="-91.14" style="white-space: pre; "> </tspan><tspan x="161.21" y="-91.14" >s</tspan><tspan x="189.85" y="-91.14" >e</tspan><tspan x="224.43" y="-91.14" >t</tspan><tspan x="249.05" y="-91.14" >t</tspan><tspan x="273.67" y="-91.14" >i</tspan><tspan x="290.56" y="-91.14" >n</tspan><tspan x="327.26" y="-91.14" >g</tspan><tspan x="360.99" y="-91.14" >s</tspan><tspan x="389.63" y="-91.14" >,</tspan><tspan x="-403.06" y="-16.56" >i</tspan><tspan x="-386.17" y="-16.56" >m</tspan><tspan x="-331.98" y="-16.56" >a</tspan><tspan x="-298.52" y="-16.56" >g</tspan><tspan x="-264.79" y="-16.56" >e</tspan><tspan x="-230.21" y="-16.56" >s</tspan><tspan x="-201.56" y="-16.56" style="white-space: pre; "> </tspan><tspan x="-188.83" y="-16.56" >f</tspan><tspan x="-166.58" y="-16.56" >r</tspan><tspan x="-139.99" y="-16.56" >o</tspan><tspan x="-103.29" y="-16.56" >m</tspan><tspan x="-49.1" y="-16.56" style="white-space: pre; "> </tspan><tspan x="-36.37" y="-16.56" >v</tspan><tspan x="-2.57" y="-16.56" >k</tspan><tspan x="32.01" y="-16.56" >.</tspan><tspan x="46" y="-16.56" >c</tspan><tspan x="76.82" y="-16.56" >o</tspan><tspan x="113.52" y="-16.56" >m</tspan><tspan x="167.71" y="-16.56" style="white-space: pre; "> </tspan><tspan x="180.44" y="-16.56" >c</tspan><tspan x="211.27" y="-16.56" >a</tspan><tspan x="244.73" y="-16.56" >n</tspan><tspan x="279.05" y="-16.56" >&apos;</tspan><tspan x="294.23" y="-16.56" >t</tspan><tspan x="318.85" y="-16.56" style="white-space: pre; "> </tspan><tspan x="331.58" y="-16.56" >b</tspan><tspan x="368.48" y="-16.56" >e</tspan><tspan x="-341.72" y="58.02" >l</tspan><tspan x="-324.82" y="58.02" >o</tspan><tspan x="-288.12" y="58.02" >a</tspan><tspan x="-254.66" y="58.02" >d</tspan><tspan x="-217.77" y="58.02" >e</tspan><tspan x="-183.18" y="58.02" >d</tspan><tspan x="-146.29" y="58.02" style="white-space: pre; "> </tspan><tspan x="-133.55" y="58.02" >c</tspan><tspan x="-102.73" y="58.02" >r</tspan><tspan x="-76.13" y="58.02" >o</tspan><tspan x="-39.44" y="58.02" >s</tspan><tspan x="-10.79" y="58.02" >s</tspan><tspan x="17.85" y="58.02" >-</tspan><tspan x="40.75" y="58.02" >d</tspan><tspan x="77.65" y="58.02" >o</tspan><tspan x="114.34" y="58.02" >m</tspan><tspan x="168.53" y="58.02" >a</tspan><tspan x="201.99" y="58.02" >i</tspan><tspan x="218.89" y="58.02" >n</tspan><tspan x="255.59" y="58.02" style="white-space: pre; "> </tspan><tspan x="268.32" y="58.02" >o</tspan><tspan x="305.02" y="58.02" >n</tspan><tspan x="-400.09" y="132.6" >b</tspan><tspan x="-363.2" y="132.6" >r</tspan><tspan x="-336.6" y="132.6" >o</tspan><tspan x="-299.9" y="132.6" >w</tspan><tspan x="-249.35" y="132.6" >s</tspan><tspan x="-220.7" y="132.6" >e</tspan><tspan x="-186.12" y="132.6" >r</tspan><tspan x="-159.52" y="132.6" >s</tspan><tspan x="-130.88" y="132.6" style="white-space: pre; "> </tspan><tspan x="-118.14" y="132.6" >w</tspan><tspan x="-67.58" y="132.6" >i</tspan><tspan x="-50.69" y="132.6" >t</tspan><tspan x="-26.07" y="132.6" >h</tspan><tspan x="10.63" y="132.6" style="white-space: pre; "> </tspan><tspan x="23.36" y="132.6" >s</tspan><tspan x="52.01" y="132.6" >t</tspan><tspan x="76.63" y="132.6" >r</tspan><tspan x="103.22" y="132.6" >i</tspan><tspan x="120.12" y="132.6" >c</tspan><tspan x="150.94" y="132.6" >t</tspan><tspan x="175.56" y="132.6" style="white-space: pre; "> </tspan><tspan x="188.3" y="132.6" >p</tspan><tspan x="224.73" y="132.6" >r</tspan><tspan x="251.33" y="132.6" >i</tspan><tspan x="268.22" y="132.6" >v</tspan><tspan x="302.02" y="132.6" >a</tspan><tspan x="335.48" y="132.6" >c</tspan><tspan x="366.3" y="132.6" >y</tspan><tspan x="-114.21" y="207.18" >s</tspan><tspan x="-85.57" y="207.18" >e</tspan><tspan x="-50.98" y="207.18" >t</tspan><tspan x="-26.37" y="207.18" >t</tspan><tspan x="-1.75" y="207.18" >i</tspan><tspan x="15.15" y="207.18" >n</tspan><tspan x="51.84" y="207.18" >g</tspan><tspan x="85.57" y="207.18" >s</tspan></text>
</g>
</svg>