<svg width="4256" height="523" viewBox="0 0 4256 523" fill="none" xmlns="http://www.w3.org/2000/svg">
<path d="M3359.41 409.267C3365.07 410.969 3370.71 412.67 3377.28 414.647C3389.66 399.934 3398.86 383.246 3405.55 365.379C3412.16 347.695 3417.22 329.422 3423.9 308.361C3431.93 348.415 3444.78 383.782 3468.51 414.673C3475.03 412.67 3480.7 410.943 3487.33 408.914C3465.55 447.514 3444.38 485.015 3422.96 522.974C3423.56 522.974 3423.12 523.04 3422.7 522.961C3422.32 522.883 3421.86 522.739 3421.63 522.451C3421.06 521.796 3420.5 521.116 3420.13 520.343C3402.21 482.306 3381.66 445.721 3359.41 409.267ZM3446.12 424.857C3442.37 415.472 3437.41 404.424 3433.54 392.997C3429.68 381.636 3426.91 369.921 3423.58 358.048C3415.49 382.081 3407.8 404.921 3399.96 428.234C3407.42 435.315 3415.41 442.907 3423.2 450.302C3430.85 441.794 3437.8 434.085 3446.12 424.857Z" fill="rgb(90,90,90)"/>
<path d="M3339.33 148.92C3332.72 154.98 3328.33 158.999 3323.5 163.423C3338.65 200.4 3363.35 229.72 3392.78 256.161C3355.47 243.765 3317.72 237.639 3278.14 242.496C3276.57 248.778 3275.06 254.8 3273.47 261.187C3250.9 223.058 3228.87 185.858 3207 148.92C3249.95 148.92 3293.18 148.92 3339.33 148.92ZM3277.56 215.924C3303.02 221.304 3327.2 226.409 3349.4 231.108C3333.95 213.791 3317.33 195.164 3300.52 176.342C3290.69 179.182 3280.35 182.167 3269.79 185.217C3272.45 195.714 3275.08 206.094 3277.56 215.924Z" fill="rgb(90,90,90)"/>
<path d="M3639.16 148.907C3617.1 186.159 3595.07 223.372 3572.56 261.41C3571.08 254.996 3569.72 249.158 3568.2 242.548C3529.02 237.613 3491.22 243.49 3453.71 256.108C3482.58 229.76 3507.24 200.662 3523.11 162.624C3518.34 159.051 3513.26 155.242 3508.19 151.433C3508.64 150.595 3509.09 149.757 3509.55 148.92C3552.73 148.907 3595.92 148.907 3639.16 148.907ZM3545.75 176.316C3528.38 195.701 3511.84 214.157 3496.65 231.108C3519.33 226.33 3543.74 221.186 3568.52 215.963C3570.99 206.303 3573.66 195.884 3576.38 185.243C3566.07 182.232 3555.74 179.222 3545.75 176.316Z" fill="rgb(90,90,90)"/>
<path d="M3422.39 23C3444.05 61.4827 3465.11 98.8921 3486.79 137.414C3481 135.896 3475.16 134.351 3468.5 132.597C3444.72 163.187 3431.89 198.751 3423.11 236.749C3414.34 198.986 3401.59 163.462 3377.54 132.427C3371.42 134.273 3365.73 135.987 3357.21 138.566C3369.71 118.081 3381.36 100.136 3391.83 81.5356C3402.49 62.5953 3412.01 43.0136 3422.39 23ZM3400.28 119.887C3407.95 142.637 3415.58 165.308 3423.04 187.442C3430.58 165.19 3438.26 142.493 3446.22 119.024C3438.97 112.099 3430.97 104.455 3422.69 96.5491C3414.56 105.005 3407.11 112.767 3400.28 119.887Z" fill="rgb(90,90,90)"/>
<path d="M3453.7 291.319C3490.93 302.798 3528.51 310.39 3568.08 304.552C3569.6 298.23 3570.99 292.418 3572.57 285.782C3595.15 323.898 3617.27 361.229 3639.15 398.141C3596.55 398.141 3553.16 398.141 3507.17 398.141C3513.33 392.382 3517.61 388.377 3522.73 383.586C3507.64 347.224 3483.3 317.799 3453.7 291.319ZM3568.45 330.927C3543.71 325.875 3519.61 320.94 3497.15 316.359C3512.6 333.702 3529.16 352.315 3545.63 370.824C3555.7 367.905 3566 364.92 3576.37 361.923C3573.5 350.718 3570.85 340.299 3568.45 330.927Z" fill="rgb(90,90,90)"/>
<path d="M3273.68 285.664C3275.05 291.882 3276.27 297.34 3277.8 304.29C3316.98 310.901 3354.82 302.628 3392.74 291.149C3363.54 317.341 3338.88 346.556 3322.91 384.855C3327.47 388.507 3332.38 392.408 3339.49 398.076C3293.13 398.076 3249.92 398.076 3207.09 398.076C3228.77 361.478 3250.82 324.239 3273.68 285.664ZM3277.6 330.94C3275.2 340.731 3272.56 351.438 3269.95 362.106C3281.26 365.3 3291.6 368.219 3300.55 370.745C3317.53 351.687 3333.82 333.414 3348.98 316.385C3326.4 320.992 3302.29 325.901 3277.6 330.94Z" fill="rgb(90,90,90)"/>
<path d="M3461.13 339.802C3453.85 336.569 3446.48 333.964 3439.89 330.05C3436.99 328.336 3434.82 324.199 3433.81 320.744C3430.32 308.741 3427.49 296.555 3423.71 281.724C3421.84 286.188 3420.72 288.191 3420.16 290.324C3418.52 296.633 3416.23 302.942 3415.78 309.369C3414.4 328.689 3401.67 335.495 3384.61 339.121C3383.81 332.812 3383.38 326.804 3382.24 320.927C3381.04 314.696 3382.95 309.997 3387.49 305.822C3393.26 300.534 3398.82 294.997 3404.44 289.539C3407.8 286.253 3411.1 282.889 3413.6 277.719C3410.15 278.57 3406.67 279.368 3403.22 280.311C3399.45 281.345 3395.74 282.628 3391.95 283.609C3365.8 290.429 3372.78 294.107 3346.43 273.203C3353.59 268.007 3360.18 262.719 3367.34 258.347C3369.45 257.064 3373.27 257.836 3376.08 258.556C3385.34 260.938 3394.49 263.74 3403.71 266.344C3407.76 267.496 3411.84 268.583 3418.75 270.481C3408.07 260.323 3399.9 251.881 3391 244.289C3383.27 237.692 3379.92 230.336 3382.69 220.296C3383.71 216.579 3383.79 212.599 3384.28 208.751C3403.55 210.597 3410.49 216.278 3414.95 233.83C3417.39 243.425 3419.65 253.072 3424.02 262.98C3424.72 260.978 3425.55 259.014 3426.06 256.959C3427.65 250.637 3429.93 244.341 3430.47 237.914C3432.08 219.183 3443.63 210.976 3460.58 207.927C3461.1 208.542 3461.99 209.105 3462.09 209.772C3465.69 234.812 3465.67 234.812 3447.06 252.339C3441.39 257.666 3435.76 263.033 3430.95 269.957C3441.63 266.75 3452.49 264.041 3462.95 260.205C3473.45 256.344 3482.3 257.496 3490.29 265.467C3492.98 268.138 3496.17 270.284 3500.31 273.609C3493.42 278.517 3487.88 283.505 3481.44 286.646C3477.65 288.492 3472.18 288.465 3467.9 287.457C3456.13 284.683 3444.6 280.939 3430.46 276.855C3432.96 280.442 3433.8 282.13 3435.07 283.361C3439.45 287.588 3444.19 291.476 3448.45 295.835C3467.01 314.827 3467.27 307.222 3461.13 339.802Z" fill="rgb(90,90,90)"/>
<path d="M4255.03 272.313C4242.34 296.507 4225.09 317.668 4205.32 338.965C4166.06 226.14 4097.72 133.498 4020.65 44.8791C3977.23 95.3732 3932.78 143.502 3914.54 208.446C3915.28 209.09 3916.01 209.734 3916.76 210.378C3951.05 181.651 3985.36 152.913 4020.69 123.332C4060.82 161.184 4093.62 203.877 4119.18 253.777C4094.39 281.884 4064.66 303.652 4034.29 326.881C4027.7 318.845 4021.82 311.663 4017.52 306.425C4033.74 289.128 4048.85 272.821 4064.2 256.736C4073.36 247.14 4073.67 247.239 4068.02 235.637C4056.96 213.003 4040.45 194.9 4020 178.222C4012.31 182.852 4004.31 186.976 3997.07 192.151C3964.08 215.653 3933.82 242.323 3905.95 271.694C3903.99 273.749 3902.18 275.941 3899.88 278.553C3898.12 276.523 3896.89 275.507 3896.16 274.22C3880.8 247.227 3869.07 218.822 3861.9 188.523C3860.22 181.391 3861.54 176.055 3865.83 170.309C3893.11 133.77 3925.58 102.22 3959.83 72.4168C3976.6 57.8184 3994.09 44.0495 4011.32 29.9711C4014.45 27.408 4017.88 25.204 4020.95 23C4091.63 64.4056 4226.89 208.446 4255.03 272.313Z" fill="rgb(90,90,90)"/>
<path d="M4020.27 523C3991.87 498.731 3963.8 475.775 3936.9 451.506C3894.89 413.605 3855.94 372.731 3822.52 326.942C3811.84 312.319 3802.59 296.668 3792.43 281.674C3788.24 275.507 3787.52 270.01 3792.33 263.806C3806.17 245.902 3819.75 227.799 3833.51 209.833C3834.45 208.607 3835.96 207.815 3838.03 206.18C3876.76 317.805 3944.95 410.199 4020.85 497.728C4055.65 475.032 4121.95 373.932 4127.71 333.394C4091.33 362.07 4058.11 391.738 4022.33 420.885C3982.38 383.392 3949.72 340.674 3923.79 290.49C3948.38 262.605 3978.26 240.887 4008.57 217.485C4014.93 225.1 4020.89 232.232 4026.44 238.869C4018.73 247.202 4012 254.879 4004.84 262.147C3995.3 271.83 3985.58 281.364 3975.63 290.638C3971.36 294.625 3970.52 298.588 3972.8 303.813C3983.11 327.401 3999.53 346.147 4018.9 362.64C4022.37 365.599 4025.82 364.757 4029.12 362.665C4037.13 357.613 4045.36 352.821 4052.93 347.187C4084.07 323.996 4113.2 298.488 4139.55 269.911C4140.64 268.722 4141.9 267.694 4142.99 266.679C4143.97 267.1 4144.93 267.199 4145.23 267.694C4162.16 295.789 4174.13 325.865 4181.63 357.799C4183.13 364.188 4181.06 368.744 4177.45 373.66C4156.58 402.003 4132.5 427.46 4106.42 450.912C4082.84 472.122 4058.21 492.169 4033.99 512.661C4030.21 515.806 4026.15 518.567 4020.27 523Z" fill="rgb(90,90,90)"/>
<path d="M2584.82 279.842C2581.55 283.236 2578.12 286.742 2574.74 290.306C2568.67 296.711 2561.95 299.709 2553.43 294.873C2545.03 290.122 2536.54 285.512 2527 280.252C2535.81 269.718 2544.76 262.747 2555.29 259.042C2559.71 257.487 2566.1 260.004 2571.06 261.984C2575.12 263.595 2578.4 267.159 2584.69 271.839C2582.16 249.06 2583.91 229.434 2587.77 209.708C2591.76 189.319 2601.8 172.252 2615.2 152.852C2608.25 153.601 2604.4 153.828 2600.63 154.464C2577.42 158.409 2563.88 151.381 2554.45 129.776C2551.07 122.055 2548.59 113.925 2545.92 105.908C2545.07 103.362 2544.93 100.577 2544.36 97.2399C2547.38 96.5329 2549.58 95.5007 2551.72 95.6138C2561.57 96.137 2571.4 96.9571 2581.24 97.7065C2599.52 99.0922 2611.3 109.683 2614.87 127.839C2615.94 133.339 2617.09 138.811 2618.23 144.453C2623.83 147.111 2626.84 142.742 2630.24 139.928C2649.97 123.582 2672.74 113.67 2697.95 110.645C2728.35 106.996 2754.44 117.658 2775.96 138.967C2785.48 148.384 2784.91 156.062 2776.03 166.03C2770.84 171.842 2766.94 172.351 2762.34 165.776C2747.07 143.958 2724.21 140.649 2700.86 141.851C2649.52 144.481 2614.62 182.857 2614.06 234.397C2613.52 283.109 2633.69 320.664 2674.56 346.54C2690.75 356.791 2708.16 365.388 2725.72 373.095C2751.27 384.308 2774.32 397.967 2788.08 423.475C2788.73 424.691 2789.76 425.709 2791.27 427.703C2793.96 424.776 2796.38 422.754 2798 420.237C2810.42 401.12 2827.36 387.616 2848 378.128C2866.33 369.701 2884.63 361.062 2902.33 351.418C2939.71 331.029 2963.12 299.511 2969.8 257.586C2976.05 218.39 2966.27 182.701 2933.17 158.409C2904.58 137.425 2871.87 135.658 2839.58 150.689C2831.09 154.634 2824.72 163.103 2816.94 169.862C2800.78 164.051 2796.76 151.099 2809.27 139.023C2835.96 113.303 2867.29 103.575 2903.74 114.01C2922.49 119.383 2939.95 127.202 2954.7 140.367C2957.46 142.827 2960.87 144.58 2965.39 147.606C2966.81 140.55 2967.87 134.399 2969.28 128.348C2973.65 109.626 2982.54 100.761 3001.59 98.2156C3014.03 96.5612 3026.72 96.7026 3041.34 95.939C3036.08 113.02 3032.7 129.026 3022.84 142.445C3013.69 154.902 3000.49 156.967 2986.14 154.817C2981.81 154.167 2977.51 153.319 2972.24 153.757C2996.12 189.121 3005.52 227.199 2999.41 270.991C3003.74 268.587 3005.86 267.837 3007.44 266.466C3021.26 254.588 3026.02 256.398 3040.05 264.854C3045.95 268.403 3050.88 273.536 3057.03 278.598C3052.27 282.444 3048.96 285.852 3045 288.199C3021.85 301.858 3018.59 300.119 3003.97 284.013C3002.54 282.43 3000.52 281.383 2998.56 279.927C2993.94 292.582 2990.21 304.502 2985.3 315.913C2972.14 346.554 2948.55 367.905 2920.81 384.859C2902.39 396.114 2883.52 406.832 2864.09 416.221C2833.26 431.125 2812.47 454.71 2799.25 485.705C2797.5 489.805 2795.35 493.75 2792.29 500C2788.97 493.736 2786.41 489.947 2784.84 485.775C2772.2 452.335 2748.78 429.711 2716.94 413.902C2693.45 402.237 2670.6 388.861 2648.83 374.226C2616.28 352.337 2595.96 321.385 2587.84 282.755C2587.72 282.048 2586.63 281.539 2584.82 279.842Z" fill="rgb(90,90,90)"/>
<path d="M2758.36 335.723C2743.18 326.461 2728.27 316.747 2712.76 308.08C2697.12 299.355 2680.71 292.243 2662.02 294.717C2656.14 295.495 2650.31 296.711 2643 297.97C2647.56 283.646 2658.36 279.489 2669.08 276.01C2671.34 269.011 2665.39 266.367 2663.05 262.167C2658.08 253.245 2650.84 245.581 2650.23 234.453C2648.93 210.529 2661.19 194.056 2680.08 182.404C2694.53 173.496 2711.19 171.616 2727.73 176.437C2739.69 179.916 2749.43 186.604 2753.37 200.744C2748.71 201.012 2745.09 201.578 2741.5 201.38C2720.19 200.235 2708.98 214.516 2704.7 231.258C2699.1 253.146 2705.22 272.164 2719.42 288.665C2729.2 300.034 2740.31 310.229 2750.58 321.187C2754.27 325.132 2757.2 329.812 2760.48 334.139C2759.77 334.677 2759.06 335.2 2758.36 335.723Z" fill="rgb(90,90,90)"/>
<path d="M2832.61 201.126C2832.12 189.517 2840.23 184.596 2847.73 180.396C2880.71 161.986 2928.46 185.883 2934.13 223.254C2936.01 235.599 2932.42 246.472 2925.39 256.483C2921.4 262.153 2917.5 267.88 2912.79 274.695C2924.56 279.814 2936.89 282.868 2940.8 297.291C2934.33 296.315 2928.93 295.368 2923.5 294.689C2906.4 292.568 2890.83 297.786 2876.33 305.888C2861.58 314.131 2847.44 323.478 2833 332.301C2830.43 333.871 2827.74 335.242 2825.11 336.699C2824.4 335.893 2823.7 335.101 2822.99 334.295C2831.57 324.722 2839.87 314.881 2848.81 305.647C2860.25 293.812 2872.47 282.84 2878.31 266.607C2883.86 251.152 2883.61 236.433 2876.42 221.657C2869.24 206.866 2857.68 199.98 2841.26 201.083C2838.53 201.281 2835.76 201.126 2832.61 201.126Z" fill="rgb(90,90,90)"/>
<path d="M2792.22 135.517C2779.03 121.56 2765.26 111.026 2755.73 96.2642C2750.04 87.4551 2748.36 78.0662 2750.99 68.0835C2752.53 62.2296 2754.02 56.0363 2757.13 50.9884C2767.82 33.5822 2779.21 16.6143 2790.02 0C2792.83 0.820113 2794.1 0.791833 2794.51 1.37157C2807.2 19.2585 2821.14 36.2264 2830.06 56.6867C2838.25 75.4504 2834.46 91.5557 2821.76 106.035C2813.18 115.82 2803.32 124.53 2792.22 135.517Z" fill="rgb(90,90,90)"/>
<path d="M2014.96 304.734C2019.53 309.654 2021.83 312.121 2024.14 314.587C2045.52 337.428 2079.18 335.5 2097.36 309.405C2114.03 285.462 2116.96 259.118 2104.86 232.341C2083.08 184.128 2024.26 165.091 1975.7 189.769C1950.34 202.665 1933.4 222.869 1922.55 248.78C1911.22 275.846 1908.35 304.407 1907.26 333.282C1906.89 343.096 1907.21 352.935 1907.21 364.244C1852.67 277.551 1871.25 130.718 1968.92 57.0002C1952.78 87.6997 1932.7 116.917 1931.03 156.013C1935.88 151.5 1938.95 148.692 1941.97 145.832C1968.36 120.721 1997.76 101.16 2034.48 94.43C2069.07 88.0933 2108.55 98.7069 2136.94 123.319C2131.1 124.801 2125.91 125.943 2120.83 127.438C2096.91 134.484 2084.97 154.15 2089.5 178.827C2095.25 210.235 2125.18 234.978 2159.91 236.973C2217.34 240.252 2251.84 194.164 2256.37 152.706C2260.33 116.353 2247.53 85.9023 2223.3 59.5716C2205.01 39.7481 2183.12 24.6739 2159.57 11.8694C2152.7 8.13031 2145.71 4.62742 2138.2 0.717832C2221.61 -8.42641 2357.99 70.3558 2377 204.896C2358.83 175.141 2341.73 144.467 2309.46 123.424C2312.51 138.328 2315.59 150.87 2317.56 163.583C2322.52 195.751 2319.81 227.028 2305.75 256.914C2291.36 287.482 2267.1 306.584 2234.15 319.454C2235.73 314.062 2236.69 310.546 2237.79 307.083C2248 275.019 2228.39 246.629 2194.66 244.687C2155.03 242.417 2119.34 271.332 2111.66 311.937C2102.44 360.584 2133.96 409.323 2183.56 423.098C2206.93 429.592 2230.3 428.726 2253.39 422.022C2281.23 413.941 2307.48 402.238 2331.5 385.786C2334.32 383.858 2337.29 382.152 2340.76 380.001C2327.76 417.798 2265.83 467.009 2207.53 487.213C2150.26 507.062 2077.16 502.274 2045.01 483.343C2072.92 480.797 2100.73 483.172 2127.25 474.408C2133.42 472.375 2139.43 469.895 2148.33 466.576C2142.48 464.556 2139.17 463.322 2135.82 462.273C2113.24 455.188 2091.22 446.844 2071.58 433.305C2043.13 413.691 2023.55 387.781 2016.17 353.618C2014.53 345.995 2014.01 338.045 2013.77 330.226C2013.53 322.879 2014.4 315.519 2014.96 304.734Z" fill="rgb(90,90,90)"/>
<path d="M1382.31 375.973C1390.51 370.676 1398.59 372.121 1405.81 377.578C1411.59 381.939 1417.25 381.324 1423.4 379.571C1458.82 369.459 1473.74 335.282 1456.9 302.443C1444.96 279.167 1424.56 265.737 1400.71 258.086C1383.87 252.682 1366.12 249.86 1348.61 246.85C1329.98 243.653 1312.04 238.77 1295.99 228.604C1263.63 208.125 1248.57 178.884 1252.69 140.507C1255.18 117.339 1261.71 95.3878 1275.15 72.9153C1276.7 80.3526 1278.07 85.5694 1278.87 90.8799C1284.34 127.184 1300.48 158.445 1324.11 186.054C1328.98 191.739 1334.71 197.063 1341 201.075C1358.24 212.071 1375.97 222.304 1393.53 232.805C1409.17 242.155 1425.3 250.769 1440.38 260.949C1453.83 270.045 1463.93 282.592 1469.75 297.721C1477.63 287.902 1484.21 276.599 1493.64 268.72C1507.19 257.404 1522.49 248.04 1537.65 238.851C1550.57 231.025 1564.55 224.966 1577.73 217.542C1623.67 191.672 1650.01 151.582 1661.56 100.966C1663.24 93.6087 1664.59 86.1714 1666.2 78.8009C1666.36 78.0518 1667.28 77.4499 1668.63 75.8715C1683.94 104.256 1692.48 133.711 1689.38 165.628C1687.05 189.532 1674.83 208.259 1655.51 222.331C1637.52 235.453 1617.21 242.824 1595.37 246.569C1580.47 249.11 1565.51 251.679 1550.84 255.29C1528.74 260.748 1508.82 270.821 1494.89 289.347C1488.6 297.694 1482.89 307.432 1480.3 317.424C1472.79 346.545 1493.9 376.401 1524.3 380.963C1528.11 381.538 1532.95 379.678 1536.38 377.485C1544.28 372.428 1551.96 371.546 1560.23 375.88C1543.37 395.275 1525.06 413.574 1510.16 434.308C1495.5 454.694 1484.29 477.554 1471.17 500C1457.85 477.273 1446.38 454.105 1431.52 433.372C1416.93 412.959 1398.87 395.008 1382.31 375.973ZM1492.38 420.972C1484.8 415.955 1477.86 411.367 1470.93 406.793C1463.72 411.769 1456.9 416.464 1449.89 421.306C1457.02 433.198 1463.77 444.447 1471.28 456.968C1478.62 444.461 1485.25 433.131 1492.38 420.972ZM1506.83 398.633C1491.27 392.078 1479.1 382.006 1470.79 365.392C1463.34 382.795 1450.84 391.476 1434.08 398.566C1450.13 404.05 1460.84 397.362 1471.25 389.858C1481.95 398.753 1493.05 403.716 1506.83 398.633Z" fill="rgb(90,90,90)"/>
<path d="M1387.23 344.11C1395.47 342.264 1402.98 341.221 1410.06 338.867C1425.58 333.744 1432.26 321.598 1428.46 306.843C1424.77 292.531 1410.44 282.699 1396.01 285.454C1389.56 286.685 1383.43 289.681 1377.21 292.022C1359.35 298.751 1341.72 306.175 1323.63 312.207C1289.78 323.484 1254.67 307.619 1237.12 283.06C1214.23 251.023 1209.34 215.669 1221.36 175.794C1224.61 179.62 1226.95 181.907 1228.75 184.569C1241.49 203.403 1255.16 221.327 1272.84 236.042C1295.36 254.809 1320.99 264.266 1350.24 262.942C1370.16 262.046 1389.25 264.574 1407.32 273.295C1420.44 279.622 1431.53 288.21 1438.68 301.199C1447.81 317.812 1445.53 339.75 1433.31 353.621C1423.87 364.336 1409.26 367.559 1396.96 361.647C1389.55 358.089 1387.66 354.825 1387.23 344.11Z" fill="rgb(90,90,90)"/>
<path d="M1719.89 176.128C1736.75 218.652 1723.56 272.158 1690.24 298.282C1671.6 312.89 1650.24 318.762 1626.3 314C1603.77 309.519 1583.29 299.848 1562.62 290.524C1553.61 286.458 1544.61 283.14 1534.33 286.284C1521.41 290.243 1512.85 300.717 1512.88 313.558C1512.9 326.4 1520.18 335.737 1533.66 339.429C1540.46 341.288 1547.48 342.291 1554.29 343.656C1554.42 355.989 1550.42 361.741 1539.63 363.707C1526.24 366.141 1515.1 362.169 1506.74 350.999C1491.57 330.72 1497.36 298.871 1519.95 282.418C1540.08 267.744 1563.05 262.046 1587.85 262.647C1597.15 262.875 1606.63 263.035 1615.74 261.51C1645.13 256.615 1668.53 240.978 1687.55 218.639C1695.61 209.182 1702.73 198.908 1710.26 188.996C1713.2 185.157 1716.05 181.278 1719.89 176.128Z" fill="rgb(90,90,90)"/>
<path d="M1558.34 0.2274C1592.35 13.751 1619.3 34.5916 1630.12 70.4808C1642.25 110.704 1636.93 148.345 1606.32 179.111C1594.89 190.602 1581.08 200.166 1567.17 208.673C1547 220.993 1523.87 226.357 1500.57 232.47C1534.39 203.831 1557.7 168.758 1569.38 126.301C1581.26 83.1215 1579.17 41.1193 1558.34 0.2274Z" fill="rgb(90,90,90)"/>
<path d="M1443.49 234.423C1408.45 223.508 1375.86 213.315 1348.63 191.351C1307.24 157.976 1295.04 103.16 1318.18 55.4991C1329.69 31.8227 1357.12 8.52083 1383.66 0C1345.12 91.8564 1372.62 167.072 1443.49 234.423Z" fill="rgb(90,90,90)"/>
<path d="M672.525 442.358C675.377 443.521 678.343 444.472 681.068 445.891C718.972 465.616 759.416 475.295 801.945 477.977C883.103 483.1 949.431 421.043 948.721 340.013C948.154 275.218 897.521 218.469 832.825 209.358C813.241 206.605 794.226 207.741 775.38 213.289C766.142 216.014 756.748 217.901 747.666 213.786C735.561 208.294 728.565 198.658 727.529 185.205C726.493 171.696 731.431 160.442 743.593 154.567C754.534 149.288 766.326 144.974 778.233 142.576C897.805 118.509 1002.46 219.845 986.71 334.976C980.182 382.714 957.066 420.93 919.517 450.716C915.557 453.852 911.485 456.861 908.277 461.473C910.647 460.437 913.159 459.656 915.359 458.351C979.615 419.965 1013.64 362.988 1016.79 288.657C1021.7 172.888 930.997 96.3992 852.891 83.2727C772.201 69.7063 705.732 94.228 654.077 157.746C638.751 176.606 620.842 180.877 602.38 168.787C590.545 161.038 585.564 149.09 590.105 135.722C592.801 127.789 596.789 120.027 601.514 113.088C643.661 51.1304 702.439 14.8871 776.047 3.06608C888.623 -15.0272 1018.3 46.9725 1056.1 188.668C1094.69 333.287 998.716 461.53 872.871 492.636C826.382 504.13 780.134 501.988 734.482 487.428C709.066 479.325 688.774 463.914 672.525 442.358Z" fill="rgb(90,90,90)"/>
<path d="M881.57 423.782C863.917 450.475 828.227 464.623 795.12 458.067C753.966 449.921 723.853 414.118 722.434 371.701C721.129 332.308 750.064 294.205 789.983 284.456C820.252 277.077 848.051 283.08 872.02 303.756C886.282 316.059 893.718 332.152 896.598 350.344C898.656 363.329 893.987 374.682 884.99 383.906C873.084 396.11 852.011 394.336 841.439 379.961C837.352 374.398 834.882 367.501 832.356 360.945C823.359 337.643 801.435 329.924 779.723 342.639C750.277 359.895 743.99 395.755 765.688 422.817C785.3 447.282 820.138 455.484 850.464 441.833C861.348 436.951 871.239 429.87 881.57 423.782Z" fill="rgb(90,90,90)"/>
<path d="M597.626 220.186C615.194 220.158 630.946 235.966 631.187 253.847C631.428 271.67 614.414 288.43 596.42 288.089C578.695 287.748 563.057 271.855 563 254.102C562.943 235.611 578.653 220.214 597.626 220.186Z" fill="rgb(90,90,90)"/>
<path d="M665.543 364.791C665.316 377.718 654.574 388.163 641.83 387.865C629.683 387.581 618.075 375.902 618.132 364.024C618.203 351.721 629.399 340.467 641.745 340.297C655.226 340.113 665.784 350.969 665.543 364.791Z" fill="rgb(90,90,90)"/>
<path d="M210.844 500C206.378 496.417 201.966 492.807 197.487 489.277C167.727 465.894 137.591 443.099 103.9 425.384C88.1634 417.108 72.8952 407.856 57.8276 398.39C45.7815 390.836 33.6686 383.109 22.8124 374.004C4.42902 358.589 -3.61954 338.788 1.5278 314.522C5.81947 294.267 13.7343 275.523 24.6173 258.008C29.0694 250.842 33.8557 243.837 38.8426 237.031C61.9588 205.559 89.701 177.429 107.523 139.687C109.007 143.911 110.063 145.837 110.33 147.855C113.472 171.025 125.893 188.794 144.824 201.067C160.761 211.402 178.436 219.076 195.335 227.927C197.528 229.076 199.76 230.159 201.806 233.261C197.621 233.769 193.436 234.25 189.252 234.799C145.052 240.588 103.966 270.148 96.3992 322.277C93.4044 342.946 99.5143 360.902 111.026 377.547C113.285 380.809 115.865 383.857 118.874 387.735C117.029 387.975 115.638 388.617 115.037 388.176C100.771 377.64 85.075 368.496 72.7214 356.035C45.835 328.895 42.5059 298.144 60.5149 264.426C64.5927 256.778 69.6999 249.679 74.8873 241.47C35.6072 258.637 16.0607 299.829 28.5613 337.023C33.2541 350.995 41.9845 362.145 53.4156 371.023C61.1165 376.999 69.3255 382.494 77.8287 387.267C121.601 411.88 167.994 431.975 207.902 463.554C211.218 461.816 214.079 460.666 216.553 458.955C251.006 435.144 286.851 413.658 324.005 394.286C335.436 388.323 346.533 381.638 357.269 374.512C364.622 369.619 371.828 364.084 377.831 357.639C400.934 332.852 401.469 300.003 379.716 274.092C371.374 264.158 361.641 255.843 348.378 248.516C349.354 252.808 349.808 255.468 350.557 258.035C353.793 269.105 357.79 280.002 360.25 291.232C366.654 320.351 358.298 345.847 339.086 367.947C307.426 404.393 231.941 437.216 166.537 407.963C152.552 401.706 139.423 394.219 130.652 381.157C113.593 355.794 128.607 322.464 158.368 319.87C165.708 319.228 173.181 320.258 183.717 320.619C178.623 325.646 175.681 328.587 172.7 331.502C160.921 343 156.951 357.185 159.598 373.015C161.697 385.582 168.876 394.928 180.602 400.543C196.364 408.097 213.05 410.022 230.11 407.896C247.463 405.73 264.002 400.449 279.15 391.505C318.898 368.028 328.297 315.552 299.672 279.199C286.142 262.019 269.644 248.93 249.629 240.28C234.522 233.756 218.946 228.221 204.186 221.001C189.867 214.009 175.147 206.95 162.673 197.257C131.321 172.897 126.414 138.056 148.086 105.032C152.472 98.3475 157.245 91.8766 162.258 85.6329C182.313 60.6717 199.159 34.2264 201.859 0C204.333 1.39045 206.164 1.80491 206.913 2.92796C218.331 19.8674 230.965 36.1784 240.591 54.0938C253.48 78.0924 249.723 92.9863 228.813 110.447C215.256 121.771 203.678 134.406 196.712 150.757C186.605 174.448 193.757 196.548 217.275 211.161C215.617 208.34 214.935 206.923 214.012 205.666C201.03 188.072 202.194 169.982 212.488 151.853C223.01 133.323 238.145 119.552 257.985 109.712C249.469 141.077 243.827 171.801 259.697 202.23C269.336 220.707 285.3 241.136 300.849 252.166C300.073 241.925 294.806 234.959 289.979 227.646C285.112 220.266 279.925 212.886 276.529 204.81C270.58 190.652 271.208 175.972 277.706 162.027C282.492 151.759 287.225 141.251 296.557 133.042C297.479 135.034 298.201 136.09 298.469 137.253C307.239 174.421 328.163 203.407 358.365 226.148C376.16 239.545 389.249 256.912 399.704 276.205C404.531 285.109 408.127 294.842 411.002 304.588C416.456 323.092 414.09 341.248 402.726 356.784C394.156 368.509 384.53 380.207 373.112 388.938C355.156 402.669 335.957 415.102 316.09 425.905C279.912 445.599 245.939 468.06 215.924 496.363C214.708 497.567 213.117 498.409 210.844 500Z" fill="rgb(90,90,90)"/>
<path d="M148.02 301.353C156.723 275.309 180.254 258.811 207.755 260.148C219.093 260.696 230.805 262.942 241.407 266.913C264.684 275.603 276.944 294.093 281.008 317.998C283.161 330.633 278.601 341.649 269.684 350.687C259.59 360.928 247.463 368.041 232.342 374.031C233.251 371.116 233.519 369.645 234.147 368.335C247.798 340.245 235.912 310.15 206.592 298.679C191.083 292.609 175.401 292.596 159.611 297.382C155.961 298.492 152.392 299.856 148.02 301.353Z" fill="rgb(90,90,90)"/>
</svg>
